<?xml version="1.0" encoding="utf-8"?>
<!-- Generator: Adobe Illustrator 13.0.0, SVG Export Plug-In . SVG Version: 6.00 Build 14948)  -->
<!DOCTYPE svg PUBLIC "-//W3C//DTD SVG 1.1//EN" "http://www.w3.org/Graphics/SVG/1.1/DTD/svg11.dtd">
<svg version="1.1" id="_x3C_Слой_x3E_" xmlns="http://www.w3.org/2000/svg" xmlns:xlink="http://www.w3.org/1999/xlink" x="0px"
	 y="0px" width="347.507px" height="79.766px" viewBox="0 0 347.507 79.766" enable-background="new 0 0 347.507 79.766"
	 xml:space="preserve">
<g>
	<g>
		<g>
			<path fill="#FF4A51" d="M59.817,40.062c0.002-0.154,0-0.311-0.002-0.462C73.89,39.042,83.482,36.059,74.015,19.9
				c-9.49-16.189-17.013-9.391-24.547,2.375l-0.346-0.191C55.718,9.786,57.946-0.018,38.941,0
				C19.806,0.018,22.176,9.843,28.855,22.251c-0.129,0.074-0.258,0.152-0.385,0.225C20.919,10.612,13.38,3.671,3.813,19.964
				C-5.839,36.4,4.214,39.198,18.657,39.658l0.002,0.417C4.267,40.568-5.829,43.461,3.774,59.845
				c9.588,16.359,17.074,9.3,24.696-2.7c0.141,0.087,0.283,0.17,0.424,0.254c-6.757,12.485-9.23,22.385,9.973,22.367
				c18.956-0.018,16.806-9.768,10.27-22.008l0.405-0.225c7.512,11.736,14.922,18.438,24.433,2.248
				C83.454,43.641,73.836,40.6,59.817,40.062z"/>
		</g>
	</g>
	<g>
		<g>
			<ellipse fill="#FFEF63" cx="38.902" cy="39.884" rx="10.237" ry="9.971"/>
		</g>
	</g>
	<g>
		<g>
			<path fill="#3B3838" d="M157.265,36.127c0-5.333-1.098-9.304-3.293-11.912c-2.196-2.607-5.192-3.912-8.989-3.912
				c-2.563,0-4.794,0.579-6.693,1.734c-1.899,1.157-3.441,2.761-4.628,4.814c-0.902-2.195-2.231-3.835-3.987-4.92
				c-1.757-1.085-3.869-1.628-6.337-1.628c-2.445,0-4.599,0.501-6.461,1.504c-1.863,1.003-3.412,2.425-4.646,4.266l-0.427-5.062
				H96.604v6.23l5.553,1.062v23.753l-5.02,1.062v6.194h19.865v-6.194l-4.486-1.062V31.384c0.688-0.967,1.561-1.717,2.617-2.248
				c1.056-0.531,2.284-0.797,3.685-0.797c1.898,0,3.322,0.584,4.272,1.752c0.949,1.168,1.424,3.168,1.424,6v15.965l-4.201,1.062
				v6.194h18.761v-6.194l-4.201-1.062V34.145c0-0.33-0.012-0.655-0.036-0.974c-0.024-0.318-0.036-0.702-0.036-1.15
				c0.641-1.156,1.501-2.059,2.581-2.708c1.08-0.649,2.355-0.974,3.827-0.974c1.875,0,3.287,0.566,4.237,1.699
				c0.949,1.133,1.424,3.15,1.424,6.053v15.965l-4.486,1.062v6.194h19.9v-6.194l-5.02-1.062V36.127z M198.862,51.208
				c-0.012-0.52-0.018-1.074-0.018-1.664V33.72c0-4.295-1.489-7.604-4.468-9.929c-2.979-2.324-6.853-3.487-11.623-3.487
				c-2.896,0-5.571,0.437-8.027,1.31c-2.457,0.874-4.634,1.947-6.533,3.221l-0.036,8.496h7.832l0.677-4.106
				c0.569-0.377,1.316-0.702,2.242-0.974c0.926-0.271,1.981-0.407,3.169-0.407c2.088,0,3.666,0.507,4.734,1.522
				s1.602,2.442,1.602,4.283v3.752h-5.304c-5.602,0-9.85,0.979-12.745,2.938c-2.896,1.958-4.343,4.732-4.343,8.319
				c0,3.517,1.109,6.295,3.329,8.336c2.219,2.042,5.215,3.063,8.989,3.063c2.278,0,4.302-0.438,6.069-1.311
				c1.768-0.872,3.27-2.018,4.504-3.434c0.118,0.686,0.284,1.363,0.498,2.036c0.214,0.672,0.463,1.327,0.747,1.964h11.997v-6.194
				l-3.168-0.425C198.916,52.222,198.874,51.726,198.862,51.208z M188.414,48.871c-0.712,1.016-1.709,1.858-2.99,2.531
				s-2.705,1.009-4.271,1.009c-1.495,0-2.665-0.365-3.507-1.098c-0.843-0.73-1.264-1.746-1.264-3.044
				c0-1.439,0.569-2.673,1.709-3.699c1.139-1.026,2.813-1.54,5.02-1.54h5.304V48.871z M234.186,37.755l6.941-9.487l4.557-1.026
				v-6.23h-18.938v6.23l3.382,0.46l-5.98,8.389h-2.314v-32H205.92v6.23l5.553,1.062v40.673l-5.02,1.062v6.194h19.865v-6.194
				l-4.486-1.062v-8.779h4.45l5.909,9.487l-2.136,0.354v6.194h17.8v-6.194l-3.951-0.814L234.186,37.755z M267.675,4.092h-15.948
				v6.23l5.553,1.062v40.673l-5.02,1.062v6.194h20.435v-6.194l-5.02-1.062V4.092z M293.591,20.304
				c-5.292-0.023-9.511,1.805-12.655,5.487c-3.146,3.681-4.717,8.366-4.717,14.053v1.416c0,5.451,1.661,9.947,4.983,13.486
				c3.322,3.54,7.761,5.311,13.314,5.311c3.108,0,5.927-0.425,8.455-1.274c2.527-0.85,4.586-1.899,6.176-3.15l-2.812-6.372
				c-1.805,0.991-3.466,1.717-4.984,2.177c-1.52,0.46-3.43,0.69-5.731,0.69c-2.587,0-4.634-0.814-6.141-2.442
				c-1.508-1.628-2.355-3.705-2.546-6.23l0.071-0.212h22.997v-5.628c0-5.31-1.436-9.522-4.308-12.638
				C302.823,21.862,298.788,20.304,293.591,20.304z M299.82,36.411h-12.744l-0.106-0.177c0.261-2.383,0.948-4.306,2.064-5.77
				c1.115-1.463,2.635-2.195,4.557-2.195c2.088,0,3.649,0.655,4.682,1.965s1.548,3.062,1.548,5.257V36.411z M334.048,21.968
				c-1.508,0.993-2.543,1.813-3.444,3.795l-0.507-4.75h-15.201v6.23l5.518,1.062v23.753l-4.983,1.062v6.194h20.362v-6.194
				l-4.983-1.062v-18.62c0.521-1.085,1.396-1.763,2.278-2.513c4.828-4.102,9.987-0.113,9.987-0.113l4.433-7.418
				C343.877,21.068,338.289,19.174,334.048,21.968z"/>
		</g>
	</g>
</g>
</svg>
